<svg width="800" height="600" viewBox="0 0 800 600" fill="none" xmlns="http://www.w3.org/2000/svg">
  <!-- Arkaplan Gradyan -->
  <rect width="800" height="600" fill="url(#paint0_linear)" />
  
  <!-- Şehir Silüeti -->
  <path d="M0 400L50 410L100 390L150 400L200 380L250 395L300 385L350 405L400 375L450 390L500 370L550 400L600 380L650 390L700 380L750 400L800 390V600H0V400Z" fill="#1a2c59" opacity="0.8" />
  
  <!-- Binalar -->
  <g>
    <!-- Bina 1 -->
    <rect x="100" y="300" width="80" height="100" fill="#2c4e9a" />
    <rect x="110" y="310" width="15" height="15" fill="#eceff1" />
    <rect x="130" y="310" width="15" height="15" fill="#eceff1" />
    <rect x="150" y="310" width="15" height="15" fill="#eceff1" />
    <rect x="110" y="330" width="15" height="15" fill="#eceff1" />
    <rect x="130" y="330" width="15" height="15" fill="#eceff1" />
    <rect x="150" y="330" width="15" height="15" fill="#eceff1" />
    <rect x="110" y="350" width="15" height="15" fill="#eceff1" />
    <rect x="130" y="350" width="15" height="15" fill="#eceff1" />
    <rect x="150" y="350" width="15" height="15" fill="#eceff1" />
    <rect x="110" y="370" width="15" height="15" fill="#eceff1" />
    <rect x="130" y="370" width="15" height="15" fill="#eceff1" />
    <rect x="150" y="370" width="15" height="15" fill="#eceff1" />
  </g>
  
  <g>
    <!-- Bina 2 -->
    <rect x="220" y="250" width="100" height="150" fill="#4f75c9" />
    <rect x="230" y="260" width="20" height="20" fill="#eceff1" />
    <rect x="260" y="260" width="20" height="20" fill="#eceff1" />
    <rect x="290" y="260" width="20" height="20" fill="#eceff1" />
    <rect x="230" y="290" width="20" height="20" fill="#eceff1" />
    <rect x="260" y="290" width="20" height="20" fill="#eceff1" />
    <rect x="290" y="290" width="20" height="20" fill="#eceff1" />
    <rect x="230" y="320" width="20" height="20" fill="#eceff1" />
    <rect x="260" y="320" width="20" height="20" fill="#eceff1" />
    <rect x="290" y="320" width="20" height="20" fill="#eceff1" />
    <rect x="230" y="350" width="20" height="20" fill="#eceff1" />
    <rect x="260" y="350" width="20" height="20" fill="#eceff1" />
    <rect x="290" y="350" width="20" height="20" fill="#eceff1" />
  </g>
  
  <g>
    <!-- Bina 3 -->
    <rect x="360" y="200" width="120" height="200" fill="#26a69a" />
    <rect x="370" y="210" width="25" height="25" fill="#eceff1" />
    <rect x="405" y="210" width="25" height="25" fill="#eceff1" />
    <rect x="440" y="210" width="25" height="25" fill="#eceff1" />
    <rect x="370" y="245" width="25" height="25" fill="#eceff1" />
    <rect x="405" y="245" width="25" height="25" fill="#eceff1" />
    <rect x="440" y="245" width="25" height="25" fill="#eceff1" />
    <rect x="370" y="280" width="25" height="25" fill="#eceff1" />
    <rect x="405" y="280" width="25" height="25" fill="#eceff1" />
    <rect x="440" y="280" width="25" height="25" fill="#eceff1" />
    <rect x="370" y="315" width="25" height="25" fill="#eceff1" />
    <rect x="405" y="315" width="25" height="25" fill="#eceff1" />
    <rect x="440" y="315" width="25" height="25" fill="#eceff1" />
    <rect x="370" y="350" width="25" height="25" fill="#eceff1" />
    <rect x="405" y="350" width="25" height="25" fill="#eceff1" />
    <rect x="440" y="350" width="25" height="25" fill="#eceff1" />
  </g>
  
  <g>
    <!-- Bina 4 -->
    <path d="M520 180L600 180L600 400L520 400L520 180Z" fill="#2c4e9a" />
    <rect x="530" y="190" width="20" height="20" fill="#eceff1" />
    <rect x="560" y="190" width="20" height="20" fill="#eceff1" />
    <rect x="530" y="220" width="20" height="20" fill="#eceff1" />
    <rect x="560" y="220" width="20" height="20" fill="#eceff1" />
    <rect x="530" y="250" width="20" height="20" fill="#eceff1" />
    <rect x="560" y="250" width="20" height="20" fill="#eceff1" />
    <rect x="530" y="280" width="20" height="20" fill="#eceff1" />
    <rect x="560" y="280" width="20" height="20" fill="#eceff1" />
    <rect x="530" y="310" width="20" height="20" fill="#eceff1" />
    <rect x="560" y="310" width="20" height="20" fill="#eceff1" />
    <rect x="530" y="340" width="20" height="20" fill="#eceff1" />
    <rect x="560" y="340" width="20" height="20" fill="#eceff1" />
  </g>
  
  <g>
    <!-- Bina 5 -->
    <polygon points="650,230 700,230 720,150 740,230 790,230 790,400 650,400" fill="#4f75c9" />
    <rect x="660" y="240" width="20" height="20" fill="#eceff1" />
    <rect x="690" y="240" width="20" height="20" fill="#eceff1" />
    <rect x="720" y="240" width="20" height="20" fill="#eceff1" />
    <rect x="750" y="240" width="20" height="20" fill="#eceff1" />
    <rect x="660" y="270" width="20" height="20" fill="#eceff1" />
    <rect x="690" y="270" width="20" height="20" fill="#eceff1" />
    <rect x="720" y="270" width="20" height="20" fill="#eceff1" />
    <rect x="750" y="270" width="20" height="20" fill="#eceff1" />
    <rect x="660" y="300" width="20" height="20" fill="#eceff1" />
    <rect x="690" y="300" width="20" height="20" fill="#eceff1" />
    <rect x="720" y="300" width="20" height="20" fill="#eceff1" />
    <rect x="750" y="300" width="20" height="20" fill="#eceff1" />
    <rect x="660" y="330" width="20" height="20" fill="#eceff1" />
    <rect x="690" y="330" width="20" height="20" fill="#eceff1" />
    <rect x="720" y="330" width="20" height="20" fill="#eceff1" />
    <rect x="750" y="330" width="20" height="20" fill="#eceff1" />
    <rect x="690" y="360" width="20" height="20" fill="#eceff1" />
    <rect x="720" y="360" width="20" height="20" fill="#eceff1" />
  </g>
  
  <!-- Grafik Elemanları -->
  <g>
    <!-- Grafik çizgileri -->
    <path d="M200 150L250 120L300 140L350 100L400 130L450 80L500 110L550 70" stroke="#ffb74d" stroke-width="5" stroke-linecap="round" stroke-linejoin="round" />
    
    <!-- Nokta İşaretleri -->
    <circle cx="200" cy="150" r="8" fill="#ffb74d" />
    <circle cx="250" cy="120" r="8" fill="#ffb74d" />
    <circle cx="300" cy="140" r="8" fill="#ffb74d" />
    <circle cx="350" cy="100" r="8" fill="#ffb74d" />
    <circle cx="400" cy="130" r="8" fill="#ffb74d" />
    <circle cx="450" cy="80" r="8" fill="#ffb74d" />
    <circle cx="500" cy="110" r="8" fill="#ffb74d" />
    <circle cx="550" cy="70" r="8" fill="#ffb74d" />
  </g>
  
  <!-- Rastgele Parıltı Efektleri -->
  <circle cx="150" cy="100" r="3" fill="white" opacity="0.7" />
  <circle cx="300" cy="80" r="2" fill="white" opacity="0.6" />
  <circle cx="450" cy="120" r="3" fill="white" opacity="0.7" />
  <circle cx="600" cy="90" r="2" fill="white" opacity="0.6" />
  <circle cx="720" cy="130" r="3" fill="white" opacity="0.7" />
  
  <!-- Defs -->
  <defs>
    <linearGradient id="paint0_linear" x1="400" y1="0" x2="400" y2="600" gradientUnits="userSpaceOnUse">
      <stop offset="0" stop-color="#1a2c59" />
      <stop offset="1" stop-color="#4f75c9" />
    </linearGradient>
  </defs>
</svg> 